<svg xmlns="http://www.w3.org/2000/svg" viewBox="0 0 1760 960" width="1760" height="960" font-family="Leelawadee UI, Leelawadee, Tahoma, Segoe UI, sans-serif"><defs><marker id="ar" viewBox="0 0 10 10" refX="9" refY="5" markerWidth="6" markerHeight="6" orient="auto-start-reverse"><path d="M0,0 L10,5 L0,10 z" fill="#0f172a"/></marker></defs><rect x="0" y="0" width="1760" height="960" rx="0" fill="#ffffff" stroke="#ffffff" stroke-width="0"/><text x="40" y="46" font-size="24" text-anchor="start" font-weight="700" fill="#0f172a">คอนโด / ที่พักอาศัย — ผังการต่อ (วัดอย่างเดียว)</text><text x="40" y="71" font-size="13" text-anchor="start" font-weight="400" fill="#64748b">Mini PC 4×LAN → switch ไฟ / switch น้ำ → RS485-to-LAN ประจำชั้น · วัดไฟ: Power Meter 1P 60A · วัดน้ำ: ESP32 IO นับพัลส์</text><rect x="1545" y="26" width="175" height="52" rx="9" fill="#0f172a" stroke="#0f172a" stroke-width="1"/><text x="1633" y="48" font-size="13" text-anchor="middle" font-weight="700" fill="#94a3b8">SHEET C1</text><text x="1633" y="68" font-size="11" text-anchor="middle" font-weight="400" fill="#cbd5e1">arkara_smart_electric</text><polyline points="40,88 1720,88" fill="none" stroke="#0f172a" stroke-width="2.5" stroke-linecap="round" stroke-linejoin="round"/><rect x="60" y="128" width="300" height="140" rx="9" fill="#111827" stroke="#000000" stroke-width="1.8"/><polyline points="78,142 78,186" fill="none" stroke="#374151" stroke-width="3" stroke-linecap="round" stroke-linejoin="round"/><polyline points="95.6,142 95.6,186" fill="none" stroke="#374151" stroke-width="3" stroke-linecap="round" stroke-linejoin="round"/><polyline points="113.2,142 113.2,186" fill="none" stroke="#374151" stroke-width="3" stroke-linecap="round" stroke-linejoin="round"/><polyline points="130.8,142 130.8,186" fill="none" stroke="#374151" stroke-width="3" stroke-linecap="round" stroke-linejoin="round"/><polyline points="148.4,142 148.4,186" fill="none" stroke="#374151" stroke-width="3" stroke-linecap="round" stroke-linejoin="round"/><polyline points="166,142 166,186" fill="none" stroke="#374151" stroke-width="3" stroke-linecap="round" stroke-linejoin="round"/><polyline points="183.6,142 183.6,186" fill="none" stroke="#374151" stroke-width="3" stroke-linecap="round" stroke-linejoin="round"/><polyline points="201.2,142 201.2,186" fill="none" stroke="#374151" stroke-width="3" stroke-linecap="round" stroke-linejoin="round"/><polyline points="218.8,142 218.8,186" fill="none" stroke="#374151" stroke-width="3" stroke-linecap="round" stroke-linejoin="round"/><polyline points="236.4,142 236.4,186" fill="none" stroke="#374151" stroke-width="3" stroke-linecap="round" stroke-linejoin="round"/><polyline points="254,142 254,186" fill="none" stroke="#374151" stroke-width="3" stroke-linecap="round" stroke-linejoin="round"/><polyline points="271.6,142 271.6,186" fill="none" stroke="#374151" stroke-width="3" stroke-linecap="round" stroke-linejoin="round"/><polyline points="289.2,142 289.2,186" fill="none" stroke="#374151" stroke-width="3" stroke-linecap="round" stroke-linejoin="round"/><polyline points="306.8,142 306.8,186" fill="none" stroke="#374151" stroke-width="3" stroke-linecap="round" stroke-linejoin="round"/><polyline points="324.4,142 324.4,186" fill="none" stroke="#374151" stroke-width="3" stroke-linecap="round" stroke-linejoin="round"/><polyline points="342,142 342,186" fill="none" stroke="#374151" stroke-width="3" stroke-linecap="round" stroke-linejoin="round"/><text x="210" y="210" font-size="13" text-anchor="middle" font-weight="700" fill="#ffffff">Mini PC 4×LAN · N2940/J5005</text><text x="210" y="226" font-size="10.5" text-anchor="middle" font-weight="700" fill="#84cc16">Modbus RTU  Master</text><rect x="132" y="230" width="78" height="26" rx="5" fill="#0f172a" stroke="#94a3b8" stroke-width="1.5"/><text x="171" y="248" font-size="9.5" text-anchor="middle" font-weight="700" fill="#e2e8f0">COM1 (DB9)</text><rect x="232" y="230" width="78" height="26" rx="5" fill="#0f172a" stroke="#94a3b8" stroke-width="1.5"/><text x="271" y="248" font-size="9.5" text-anchor="middle" font-weight="700" fill="#e2e8f0">COM2 (DB9)</text><text x="210" y="292" font-size="11" text-anchor="middle" font-weight="700" fill="#64748b">ตู้ Main (ห้องนิติ)</text><polyline points="100,128 100,98" fill="none" stroke="#475569" stroke-width="2.6" stroke-linecap="round" stroke-linejoin="round" marker-end="url(#ar)"/><text x="116" y="104" font-size="10.5" text-anchor="start" font-weight="700" fill="#475569">LAN0 → Internet / ISP</text><rect x="500" y="102" width="200" height="68" rx="7" fill="#1e293b" stroke="#0f172a" stroke-width="1.8"/><text x="600" y="126" font-size="12" text-anchor="middle" font-weight="700" fill="#7dd3fc">Switch ไฟ · 192.168.10.x</text><text x="600" y="142" font-size="9" text-anchor="middle" font-weight="400" fill="#94a3b8">Gigabit 5 port</text><rect x="528" y="154" width="22" height="10" rx="2" fill="#0f172a" stroke="#84cc16" stroke-width="1.2"/><rect x="558" y="154" width="22" height="10" rx="2" fill="#0f172a" stroke="#84cc16" stroke-width="1.2"/><rect x="588" y="154" width="22" height="10" rx="2" fill="#0f172a" stroke="#84cc16" stroke-width="1.2"/><rect x="618" y="154" width="22" height="10" rx="2" fill="#0f172a" stroke="#84cc16" stroke-width="1.2"/><rect x="648" y="154" width="22" height="10" rx="2" fill="#0f172a" stroke="#84cc16" stroke-width="1.2"/><rect x="500" y="206" width="200" height="68" rx="7" fill="#1e293b" stroke="#0f172a" stroke-width="1.8"/><text x="600" y="230" font-size="12" text-anchor="middle" font-weight="700" fill="#c4b5fd">Switch น้ำ · 192.168.20.x</text><text x="600" y="246" font-size="9" text-anchor="middle" font-weight="400" fill="#94a3b8">Gigabit 5 port</text><rect x="528" y="258" width="22" height="10" rx="2" fill="#0f172a" stroke="#84cc16" stroke-width="1.2"/><rect x="558" y="258" width="22" height="10" rx="2" fill="#0f172a" stroke="#84cc16" stroke-width="1.2"/><rect x="588" y="258" width="22" height="10" rx="2" fill="#0f172a" stroke="#84cc16" stroke-width="1.2"/><rect x="618" y="258" width="22" height="10" rx="2" fill="#0f172a" stroke="#84cc16" stroke-width="1.2"/><rect x="648" y="258" width="22" height="10" rx="2" fill="#0f172a" stroke="#84cc16" stroke-width="1.2"/><polyline points="360,168 430,168 430,136 500,136" fill="none" stroke="#16a34a" stroke-width="2.8" stroke-linecap="round" stroke-linejoin="round" marker-end="url(#ar)"/><polyline points="360,196 430,196 430,240 500,240" fill="none" stroke="#16a34a" stroke-width="2.8" stroke-linecap="round" stroke-linejoin="round" marker-end="url(#ar)"/><rect x="444.84" y="108" width="34.32" height="19" rx="5" fill="#ffffff" stroke="#16a34a" stroke-width="1.2"/><text x="462" y="122" font-size="9" text-anchor="middle" font-weight="700" fill="#16a34a">LAN1</text><rect x="444.84" y="252" width="34.32" height="19" rx="5" fill="#ffffff" stroke="#16a34a" stroke-width="1.2"/><text x="462" y="266" font-size="9" text-anchor="middle" font-weight="700" fill="#16a34a">LAN2</text><rect x="50" y="330" width="740" height="546" rx="14" fill="#eef2f7" stroke="#cbd5e1" stroke-width="1.8"/><text x="70" y="360" font-size="16" text-anchor="start" font-weight="700" fill="#475569">⚡ กลุ่มวัดไฟ</text><rect x="188.8" y="342" width="314.8" height="25" rx="12" fill="#ffffff" stroke="#0284c7" stroke-width="1.6"/><text x="346.2" y="359" font-size="11.5" text-anchor="middle" font-weight="700" fill="#0284c7">Power Meter 1P 230V 60A · 192.168.10.x</text><rect x="830" y="330" width="880" height="546" rx="14" fill="#eef2f7" stroke="#cbd5e1" stroke-width="1.8"/><text x="850" y="360" font-size="16" text-anchor="start" font-weight="700" fill="#475569">💧 กลุ่มวัดน้ำ</text><rect x="978.2" y="342" width="345.2" height="25" rx="12" fill="#ffffff" stroke="#7c3aed" stroke-width="1.6"/><text x="1150.8" y="359" font-size="11.5" text-anchor="middle" font-weight="700" fill="#7c3aed">Flow Meter พัลส์ → ESP32 IO · 192.168.20.x</text><text x="114" y="434" font-size="13" text-anchor="start" font-weight="700" fill="#334155">ชั้น 3</text><text x="114" y="451" font-size="9.5" text-anchor="start" font-weight="400" fill="#64748b">16 ห้อง</text><rect x="190" y="406" width="150" height="64" rx="7" fill="#0f172a" stroke="#0284c7" stroke-width="1.6"/><text x="265" y="426" font-size="10.5" text-anchor="middle" font-weight="700" fill="#ffffff">RS485→LAN</text><text x="265" y="441" font-size="8" text-anchor="middle" font-weight="400" fill="#94a3b8">Modbus TCP↔RTU</text><text x="265" y="458" font-size="9" text-anchor="middle" font-weight="700" fill="#84cc16">192.168.10.13</text><polyline points="340,438 380,438" fill="none" stroke="#cbd5e1" stroke-width="9.5" stroke-linecap="round" stroke-linejoin="round"/><polyline points="340,438 380,438" fill="none" stroke="#0284c7" stroke-width="3" stroke-linecap="round" stroke-linejoin="round"/><rect x="380" y="412" width="76" height="52" rx="6" fill="#fffbeb" stroke="#d97706" stroke-width="1.5"/><text x="418" y="432" font-size="11.5" text-anchor="middle" font-weight="700" fill="#d97706">kWh</text><text x="418" y="450" font-size="11" text-anchor="middle" font-weight="700" fill="#0f172a">33</text><text x="548" y="444" font-size="22" text-anchor="middle" font-weight="700" fill="#64748b">…</text><rect x="640" y="412" width="76" height="52" rx="6" fill="#fffbeb" stroke="#d97706" stroke-width="1.5"/><text x="678" y="432" font-size="11.5" text-anchor="middle" font-weight="700" fill="#d97706">kWh</text><text x="678" y="450" font-size="11" text-anchor="middle" font-weight="700" fill="#0f172a">48</text><polyline points="86,438 190,438" fill="none" stroke="#16a34a" stroke-width="2.6" stroke-linecap="round" stroke-linejoin="round"/><circle cx="86" cy="438" r="5.5" fill="#16a34a"/><text x="894" y="434" font-size="13" text-anchor="start" font-weight="700" fill="#334155">ชั้น 3</text><text x="894" y="451" font-size="9.5" text-anchor="start" font-weight="400" fill="#64748b">16 ห้อง</text><rect x="970" y="406" width="150" height="64" rx="7" fill="#0f172a" stroke="#7c3aed" stroke-width="1.6"/><text x="1045" y="426" font-size="10.5" text-anchor="middle" font-weight="700" fill="#ffffff">RS485→LAN</text><text x="1045" y="441" font-size="8" text-anchor="middle" font-weight="400" fill="#94a3b8">Modbus TCP↔RTU</text><text x="1045" y="458" font-size="9" text-anchor="middle" font-weight="700" fill="#84cc16">192.168.20.13</text><polyline points="1120,438 1148,438" fill="none" stroke="#cbd5e1" stroke-width="9.5" stroke-linecap="round" stroke-linejoin="round"/><polyline points="1120,438 1148,438" fill="none" stroke="#7c3aed" stroke-width="3" stroke-linecap="round" stroke-linejoin="round"/><rect x="1148" y="406" width="210" height="70" rx="7" fill="#1e293b" stroke="#0f172a" stroke-width="1.6"/><rect x="1160" y="414" width="18" height="10" rx="2" fill="#84cc16" stroke="#3f6212" stroke-width="1"/><rect x="1184" y="414" width="18" height="10" rx="2" fill="#84cc16" stroke="#3f6212" stroke-width="1"/><rect x="1208" y="414" width="18" height="10" rx="2" fill="#84cc16" stroke="#3f6212" stroke-width="1"/><rect x="1232" y="414" width="18" height="10" rx="2" fill="#84cc16" stroke="#3f6212" stroke-width="1"/><rect x="1256" y="414" width="18" height="10" rx="2" fill="#84cc16" stroke="#3f6212" stroke-width="1"/><rect x="1280" y="414" width="18" height="10" rx="2" fill="#84cc16" stroke="#3f6212" stroke-width="1"/><rect x="1304" y="414" width="18" height="10" rx="2" fill="#84cc16" stroke="#3f6212" stroke-width="1"/><rect x="1328" y="414" width="18" height="10" rx="2" fill="#84cc16" stroke="#3f6212" stroke-width="1"/><text x="1253" y="442" font-size="10.5" text-anchor="middle" font-weight="700" fill="#ffffff">ESP32 IO — นับพัลส์ 16CH</text><text x="1253" y="456" font-size="8" text-anchor="middle" font-weight="400" fill="#94a3b8">เฟิร์มแวร์เรา · NVS · Modbus RTU slave</text><text x="1253" y="470" font-size="9" text-anchor="middle" font-weight="700" fill="#84cc16">addr 123</text><polyline points="1418,438 1388,438" fill="none" stroke="#a855f7" stroke-width="2.6" stroke-linecap="round" stroke-linejoin="round" marker-end="url(#ar)"/><rect x="1426" y="412" width="76" height="52" rx="6" fill="#ecfeff" stroke="#0891b2" stroke-width="1.5"/><text x="1464" y="432" font-size="11" text-anchor="middle" font-weight="700" fill="#0891b2">flow</text><text x="1464" y="450" font-size="10" text-anchor="middle" font-weight="700" fill="#0f172a">CH1</text><text x="1564" y="444" font-size="22" text-anchor="middle" font-weight="700" fill="#64748b">…</text><rect x="1626" y="412" width="76" height="52" rx="6" fill="#ecfeff" stroke="#0891b2" stroke-width="1.5"/><text x="1664" y="432" font-size="11" text-anchor="middle" font-weight="700" fill="#0891b2">flow</text><text x="1664" y="450" font-size="10" text-anchor="middle" font-weight="700" fill="#0f172a">CH16</text><polyline points="866,438 970,438" fill="none" stroke="#16a34a" stroke-width="2.6" stroke-linecap="round" stroke-linejoin="round"/><circle cx="866" cy="438" r="5.5" fill="#16a34a"/><text x="114" y="602" font-size="13" text-anchor="start" font-weight="700" fill="#334155">ชั้น 2</text><text x="114" y="619" font-size="9.5" text-anchor="start" font-weight="400" fill="#64748b">16 ห้อง</text><rect x="190" y="574" width="150" height="64" rx="7" fill="#0f172a" stroke="#0284c7" stroke-width="1.6"/><text x="265" y="594" font-size="10.5" text-anchor="middle" font-weight="700" fill="#ffffff">RS485→LAN</text><text x="265" y="609" font-size="8" text-anchor="middle" font-weight="400" fill="#94a3b8">Modbus TCP↔RTU</text><text x="265" y="626" font-size="9" text-anchor="middle" font-weight="700" fill="#84cc16">192.168.10.12</text><polyline points="340,606 380,606" fill="none" stroke="#cbd5e1" stroke-width="9.5" stroke-linecap="round" stroke-linejoin="round"/><polyline points="340,606 380,606" fill="none" stroke="#0284c7" stroke-width="3" stroke-linecap="round" stroke-linejoin="round"/><rect x="380" y="580" width="76" height="52" rx="6" fill="#fffbeb" stroke="#d97706" stroke-width="1.5"/><text x="418" y="600" font-size="11.5" text-anchor="middle" font-weight="700" fill="#d97706">kWh</text><text x="418" y="618" font-size="11" text-anchor="middle" font-weight="700" fill="#0f172a">17</text><text x="548" y="612" font-size="22" text-anchor="middle" font-weight="700" fill="#64748b">…</text><rect x="640" y="580" width="76" height="52" rx="6" fill="#fffbeb" stroke="#d97706" stroke-width="1.5"/><text x="678" y="600" font-size="11.5" text-anchor="middle" font-weight="700" fill="#d97706">kWh</text><text x="678" y="618" font-size="11" text-anchor="middle" font-weight="700" fill="#0f172a">32</text><polyline points="86,606 190,606" fill="none" stroke="#16a34a" stroke-width="2.6" stroke-linecap="round" stroke-linejoin="round"/><circle cx="86" cy="606" r="5.5" fill="#16a34a"/><text x="894" y="602" font-size="13" text-anchor="start" font-weight="700" fill="#334155">ชั้น 2</text><text x="894" y="619" font-size="9.5" text-anchor="start" font-weight="400" fill="#64748b">16 ห้อง</text><rect x="970" y="574" width="150" height="64" rx="7" fill="#0f172a" stroke="#7c3aed" stroke-width="1.6"/><text x="1045" y="594" font-size="10.5" text-anchor="middle" font-weight="700" fill="#ffffff">RS485→LAN</text><text x="1045" y="609" font-size="8" text-anchor="middle" font-weight="400" fill="#94a3b8">Modbus TCP↔RTU</text><text x="1045" y="626" font-size="9" text-anchor="middle" font-weight="700" fill="#84cc16">192.168.20.12</text><polyline points="1120,606 1148,606" fill="none" stroke="#cbd5e1" stroke-width="9.5" stroke-linecap="round" stroke-linejoin="round"/><polyline points="1120,606 1148,606" fill="none" stroke="#7c3aed" stroke-width="3" stroke-linecap="round" stroke-linejoin="round"/><rect x="1148" y="574" width="210" height="70" rx="7" fill="#1e293b" stroke="#0f172a" stroke-width="1.6"/><rect x="1160" y="582" width="18" height="10" rx="2" fill="#84cc16" stroke="#3f6212" stroke-width="1"/><rect x="1184" y="582" width="18" height="10" rx="2" fill="#84cc16" stroke="#3f6212" stroke-width="1"/><rect x="1208" y="582" width="18" height="10" rx="2" fill="#84cc16" stroke="#3f6212" stroke-width="1"/><rect x="1232" y="582" width="18" height="10" rx="2" fill="#84cc16" stroke="#3f6212" stroke-width="1"/><rect x="1256" y="582" width="18" height="10" rx="2" fill="#84cc16" stroke="#3f6212" stroke-width="1"/><rect x="1280" y="582" width="18" height="10" rx="2" fill="#84cc16" stroke="#3f6212" stroke-width="1"/><rect x="1304" y="582" width="18" height="10" rx="2" fill="#84cc16" stroke="#3f6212" stroke-width="1"/><rect x="1328" y="582" width="18" height="10" rx="2" fill="#84cc16" stroke="#3f6212" stroke-width="1"/><text x="1253" y="610" font-size="10.5" text-anchor="middle" font-weight="700" fill="#ffffff">ESP32 IO — นับพัลส์ 16CH</text><text x="1253" y="624" font-size="8" text-anchor="middle" font-weight="400" fill="#94a3b8">เฟิร์มแวร์เรา · NVS · Modbus RTU slave</text><text x="1253" y="638" font-size="9" text-anchor="middle" font-weight="700" fill="#84cc16">addr 122</text><polyline points="1418,606 1388,606" fill="none" stroke="#a855f7" stroke-width="2.6" stroke-linecap="round" stroke-linejoin="round" marker-end="url(#ar)"/><rect x="1426" y="580" width="76" height="52" rx="6" fill="#ecfeff" stroke="#0891b2" stroke-width="1.5"/><text x="1464" y="600" font-size="11" text-anchor="middle" font-weight="700" fill="#0891b2">flow</text><text x="1464" y="618" font-size="10" text-anchor="middle" font-weight="700" fill="#0f172a">CH1</text><text x="1564" y="612" font-size="22" text-anchor="middle" font-weight="700" fill="#64748b">…</text><rect x="1626" y="580" width="76" height="52" rx="6" fill="#ecfeff" stroke="#0891b2" stroke-width="1.5"/><text x="1664" y="600" font-size="11" text-anchor="middle" font-weight="700" fill="#0891b2">flow</text><text x="1664" y="618" font-size="10" text-anchor="middle" font-weight="700" fill="#0f172a">CH16</text><polyline points="866,606 970,606" fill="none" stroke="#16a34a" stroke-width="2.6" stroke-linecap="round" stroke-linejoin="round"/><circle cx="866" cy="606" r="5.5" fill="#16a34a"/><text x="114" y="770" font-size="13" text-anchor="start" font-weight="700" fill="#334155">ชั้น 1</text><text x="114" y="787" font-size="9.5" text-anchor="start" font-weight="400" fill="#64748b">16 ห้อง</text><rect x="190" y="742" width="150" height="64" rx="7" fill="#0f172a" stroke="#0284c7" stroke-width="1.6"/><text x="265" y="762" font-size="10.5" text-anchor="middle" font-weight="700" fill="#ffffff">RS485→LAN</text><text x="265" y="777" font-size="8" text-anchor="middle" font-weight="400" fill="#94a3b8">Modbus TCP↔RTU</text><text x="265" y="794" font-size="9" text-anchor="middle" font-weight="700" fill="#84cc16">192.168.10.11</text><polyline points="340,774 380,774" fill="none" stroke="#cbd5e1" stroke-width="9.5" stroke-linecap="round" stroke-linejoin="round"/><polyline points="340,774 380,774" fill="none" stroke="#0284c7" stroke-width="3" stroke-linecap="round" stroke-linejoin="round"/><rect x="380" y="748" width="76" height="52" rx="6" fill="#fffbeb" stroke="#d97706" stroke-width="1.5"/><text x="418" y="768" font-size="11.5" text-anchor="middle" font-weight="700" fill="#d97706">kWh</text><text x="418" y="786" font-size="11" text-anchor="middle" font-weight="700" fill="#0f172a">1</text><text x="548" y="780" font-size="22" text-anchor="middle" font-weight="700" fill="#64748b">…</text><rect x="640" y="748" width="76" height="52" rx="6" fill="#fffbeb" stroke="#d97706" stroke-width="1.5"/><text x="678" y="768" font-size="11.5" text-anchor="middle" font-weight="700" fill="#d97706">kWh</text><text x="678" y="786" font-size="11" text-anchor="middle" font-weight="700" fill="#0f172a">16</text><polyline points="86,774 190,774" fill="none" stroke="#16a34a" stroke-width="2.6" stroke-linecap="round" stroke-linejoin="round"/><circle cx="86" cy="774" r="5.5" fill="#16a34a"/><text x="894" y="770" font-size="13" text-anchor="start" font-weight="700" fill="#334155">ชั้น 1</text><text x="894" y="787" font-size="9.5" text-anchor="start" font-weight="400" fill="#64748b">16 ห้อง</text><rect x="970" y="742" width="150" height="64" rx="7" fill="#0f172a" stroke="#7c3aed" stroke-width="1.6"/><text x="1045" y="762" font-size="10.5" text-anchor="middle" font-weight="700" fill="#ffffff">RS485→LAN</text><text x="1045" y="777" font-size="8" text-anchor="middle" font-weight="400" fill="#94a3b8">Modbus TCP↔RTU</text><text x="1045" y="794" font-size="9" text-anchor="middle" font-weight="700" fill="#84cc16">192.168.20.11</text><polyline points="1120,774 1148,774" fill="none" stroke="#cbd5e1" stroke-width="9.5" stroke-linecap="round" stroke-linejoin="round"/><polyline points="1120,774 1148,774" fill="none" stroke="#7c3aed" stroke-width="3" stroke-linecap="round" stroke-linejoin="round"/><rect x="1148" y="742" width="210" height="70" rx="7" fill="#1e293b" stroke="#0f172a" stroke-width="1.6"/><rect x="1160" y="750" width="18" height="10" rx="2" fill="#84cc16" stroke="#3f6212" stroke-width="1"/><rect x="1184" y="750" width="18" height="10" rx="2" fill="#84cc16" stroke="#3f6212" stroke-width="1"/><rect x="1208" y="750" width="18" height="10" rx="2" fill="#84cc16" stroke="#3f6212" stroke-width="1"/><rect x="1232" y="750" width="18" height="10" rx="2" fill="#84cc16" stroke="#3f6212" stroke-width="1"/><rect x="1256" y="750" width="18" height="10" rx="2" fill="#84cc16" stroke="#3f6212" stroke-width="1"/><rect x="1280" y="750" width="18" height="10" rx="2" fill="#84cc16" stroke="#3f6212" stroke-width="1"/><rect x="1304" y="750" width="18" height="10" rx="2" fill="#84cc16" stroke="#3f6212" stroke-width="1"/><rect x="1328" y="750" width="18" height="10" rx="2" fill="#84cc16" stroke="#3f6212" stroke-width="1"/><text x="1253" y="778" font-size="10.5" text-anchor="middle" font-weight="700" fill="#ffffff">ESP32 IO — นับพัลส์ 16CH</text><text x="1253" y="792" font-size="8" text-anchor="middle" font-weight="400" fill="#94a3b8">เฟิร์มแวร์เรา · NVS · Modbus RTU slave</text><text x="1253" y="806" font-size="9" text-anchor="middle" font-weight="700" fill="#84cc16">addr 121</text><polyline points="1418,774 1388,774" fill="none" stroke="#a855f7" stroke-width="2.6" stroke-linecap="round" stroke-linejoin="round" marker-end="url(#ar)"/><rect x="1426" y="748" width="76" height="52" rx="6" fill="#ecfeff" stroke="#0891b2" stroke-width="1.5"/><text x="1464" y="768" font-size="11" text-anchor="middle" font-weight="700" fill="#0891b2">flow</text><text x="1464" y="786" font-size="10" text-anchor="middle" font-weight="700" fill="#0f172a">CH1</text><text x="1564" y="780" font-size="22" text-anchor="middle" font-weight="700" fill="#64748b">…</text><rect x="1626" y="748" width="76" height="52" rx="6" fill="#ecfeff" stroke="#0891b2" stroke-width="1.5"/><text x="1664" y="768" font-size="11" text-anchor="middle" font-weight="700" fill="#0891b2">flow</text><text x="1664" y="786" font-size="10" text-anchor="middle" font-weight="700" fill="#0f172a">CH16</text><polyline points="866,774 970,774" fill="none" stroke="#16a34a" stroke-width="2.6" stroke-linecap="round" stroke-linejoin="round"/><circle cx="866" cy="774" r="5.5" fill="#16a34a"/><polyline points="700,136 740,136 740,308 86,308 86,774" fill="none" stroke="#16a34a" stroke-width="2.8" stroke-linecap="round" stroke-linejoin="round"/><polyline points="700,240 772,240 772,322 866,322 866,774" fill="none" stroke="#16a34a" stroke-width="2.8" stroke-linecap="round" stroke-linejoin="round"/><text x="73" y="660" font-size="10.5" text-anchor="end" font-weight="700" fill="#16a34a" transform="rotate(-90 73 660)">Cat5e riser</text><text x="853" y="660" font-size="10.5" text-anchor="end" font-weight="700" fill="#16a34a" transform="rotate(-90 853 660)">Cat5e riser</text><text x="40" y="938" font-size="11" text-anchor="start" font-weight="400" fill="#64748b">ระบบมิเตอร์น้ำ-ไฟรายห้าง/ห้อง + ตัดจ่ายระยะไกล · Modbus RTU บน RS485 · ปรับปรุง 2026-08-02</text></svg>