<svg xmlns="http://www.w3.org/2000/svg" viewBox="0 0 1560 800" width="1560" height="800" font-family="Leelawadee UI, Leelawadee, Tahoma, Segoe UI, sans-serif"><defs><marker id="ar" viewBox="0 0 10 10" refX="9" refY="5" markerWidth="6" markerHeight="6" orient="auto-start-reverse"><path d="M0,0 L10,5 L0,10 z" fill="#0f172a"/></marker></defs><rect x="0" y="0" width="1560" height="800" rx="0" fill="#ffffff" stroke="#ffffff" stroke-width="0"/><text x="40" y="46" font-size="24" text-anchor="start" font-weight="700" fill="#0f172a">ผังการวัด (measure only)</text><text x="40" y="71" font-size="13" text-anchor="start" font-weight="400" fill="#64748b">วัดไฟ: Power Meter 1P 230V 60A · วัดน้ำ: Flow Meter พัลส์ + Optocoupler + custom board · ผ่าน Modbus TCP gateway</text><rect x="1345" y="26" width="175" height="52" rx="9" fill="#0f172a" stroke="#0f172a" stroke-width="1"/><text x="1433" y="48" font-size="13" text-anchor="middle" font-weight="700" fill="#94a3b8">SHEET M1</text><text x="1433" y="68" font-size="11" text-anchor="middle" font-weight="400" fill="#cbd5e1">arkara_smart_electric</text><polyline points="40,88 1520,88" fill="none" stroke="#0f172a" stroke-width="2.5" stroke-linecap="round" stroke-linejoin="round"/><rect x="60" y="150" width="320" height="146" rx="9" fill="#111827" stroke="#000000" stroke-width="1.8"/><polyline points="78,164 78,208" fill="none" stroke="#374151" stroke-width="3" stroke-linecap="round" stroke-linejoin="round"/><polyline points="96.9333,164 96.9333,208" fill="none" stroke="#374151" stroke-width="3" stroke-linecap="round" stroke-linejoin="round"/><polyline points="115.867,164 115.867,208" fill="none" stroke="#374151" stroke-width="3" stroke-linecap="round" stroke-linejoin="round"/><polyline points="134.8,164 134.8,208" fill="none" stroke="#374151" stroke-width="3" stroke-linecap="round" stroke-linejoin="round"/><polyline points="153.733,164 153.733,208" fill="none" stroke="#374151" stroke-width="3" stroke-linecap="round" stroke-linejoin="round"/><polyline points="172.667,164 172.667,208" fill="none" stroke="#374151" stroke-width="3" stroke-linecap="round" stroke-linejoin="round"/><polyline points="191.6,164 191.6,208" fill="none" stroke="#374151" stroke-width="3" stroke-linecap="round" stroke-linejoin="round"/><polyline points="210.533,164 210.533,208" fill="none" stroke="#374151" stroke-width="3" stroke-linecap="round" stroke-linejoin="round"/><polyline points="229.467,164 229.467,208" fill="none" stroke="#374151" stroke-width="3" stroke-linecap="round" stroke-linejoin="round"/><polyline points="248.4,164 248.4,208" fill="none" stroke="#374151" stroke-width="3" stroke-linecap="round" stroke-linejoin="round"/><polyline points="267.333,164 267.333,208" fill="none" stroke="#374151" stroke-width="3" stroke-linecap="round" stroke-linejoin="round"/><polyline points="286.267,164 286.267,208" fill="none" stroke="#374151" stroke-width="3" stroke-linecap="round" stroke-linejoin="round"/><polyline points="305.2,164 305.2,208" fill="none" stroke="#374151" stroke-width="3" stroke-linecap="round" stroke-linejoin="round"/><polyline points="324.133,164 324.133,208" fill="none" stroke="#374151" stroke-width="3" stroke-linecap="round" stroke-linejoin="round"/><polyline points="343.067,164 343.067,208" fill="none" stroke="#374151" stroke-width="3" stroke-linecap="round" stroke-linejoin="round"/><polyline points="362,164 362,208" fill="none" stroke="#374151" stroke-width="3" stroke-linecap="round" stroke-linejoin="round"/><text x="220" y="232" font-size="13" text-anchor="middle" font-weight="700" fill="#ffffff">Helorpc N2840/J2900</text><text x="220" y="248" font-size="10.5" text-anchor="middle" font-weight="700" fill="#84cc16">Modbus RTU  Master</text><rect x="142" y="258" width="78" height="26" rx="5" fill="#0f172a" stroke="#94a3b8" stroke-width="1.5"/><text x="181" y="276" font-size="9.5" text-anchor="middle" font-weight="700" fill="#e2e8f0">COM1 (DB9)</text><rect x="242" y="258" width="78" height="26" rx="5" fill="#0f172a" stroke="#94a3b8" stroke-width="1.5"/><text x="281" y="276" font-size="9.5" text-anchor="middle" font-weight="700" fill="#e2e8f0">COM2 (DB9)</text><rect x="430" y="172" width="170" height="64" rx="7" fill="#1e293b" stroke="#0f172a" stroke-width="1.8"/><text x="515" y="198" font-size="12" text-anchor="middle" font-weight="700" fill="#ffffff">LAN Switch</text><text x="515" y="214" font-size="9" text-anchor="middle" font-weight="400" fill="#94a3b8">Gigabit 5 port</text><rect x="444" y="220" width="22" height="10" rx="2" fill="#0f172a" stroke="#84cc16" stroke-width="1.2"/><rect x="474" y="220" width="22" height="10" rx="2" fill="#0f172a" stroke="#84cc16" stroke-width="1.2"/><rect x="504" y="220" width="22" height="10" rx="2" fill="#0f172a" stroke="#84cc16" stroke-width="1.2"/><rect x="534" y="220" width="22" height="10" rx="2" fill="#0f172a" stroke="#84cc16" stroke-width="1.2"/><rect x="564" y="220" width="22" height="10" rx="2" fill="#0f172a" stroke="#84cc16" stroke-width="1.2"/><polyline points="360,204 430,204" fill="none" stroke="#475569" stroke-width="2.8" stroke-linecap="round" stroke-linejoin="round" marker-end="url(#ar)"/><rect x="680" y="130" width="225" height="70" rx="7" fill="#0f172a" stroke="#0284c7" stroke-width="1.8"/><text x="792.5" y="152" font-size="11.5" text-anchor="middle" font-weight="700" fill="#ffffff">RS485 TO ETH (B)</text><text x="792.5" y="167" font-size="8.5" text-anchor="middle" font-weight="400" fill="#94a3b8">Modbus TCP ↔ RTU gateway</text><text x="792.5" y="182" font-size="9.5" text-anchor="middle" font-weight="700" fill="#0284c7">gateway #1 — บัสมิเตอร์ไฟ</text><text x="792.5" y="195" font-size="8.5" text-anchor="middle" font-weight="700" fill="#84cc16">192.168.10.11</text><rect x="680" y="230" width="225" height="70" rx="7" fill="#0f172a" stroke="#7c3aed" stroke-width="1.8"/><text x="792.5" y="252" font-size="11.5" text-anchor="middle" font-weight="700" fill="#ffffff">RS485 TO ETH (B)</text><text x="792.5" y="267" font-size="8.5" text-anchor="middle" font-weight="400" fill="#94a3b8">Modbus TCP ↔ RTU gateway</text><text x="792.5" y="282" font-size="9.5" text-anchor="middle" font-weight="700" fill="#7c3aed">gateway #2 — บัส custom module</text><text x="792.5" y="295" font-size="8.5" text-anchor="middle" font-weight="700" fill="#84cc16">192.168.10.12</text><polyline points="600,190 640,190 640,165 680,165" fill="none" stroke="#475569" stroke-width="2.4" stroke-linecap="round" stroke-linejoin="round" marker-end="url(#ar)"/><polyline points="600,218 640,218 640,265 680,265" fill="none" stroke="#475569" stroke-width="2.4" stroke-linecap="round" stroke-linejoin="round" marker-end="url(#ar)"/><polyline points="905,165 820,165 820,384" fill="none" stroke="#cbd5e1" stroke-width="11" stroke-linecap="round" stroke-linejoin="round"/><polyline points="905,165 820,165 820,384" fill="none" stroke="#0284c7" stroke-width="4.5" stroke-linecap="round" stroke-linejoin="round"/><rect x="880" y="416" width="76" height="52" rx="6" fill="#fffbeb" stroke="#d97706" stroke-width="1.5"/><text x="918" y="436" font-size="11.5" text-anchor="middle" font-weight="700" fill="#d97706">kWh</text><text x="918" y="454" font-size="11" text-anchor="middle" font-weight="700" fill="#0f172a">1</text><rect x="984" y="416" width="76" height="52" rx="6" fill="#fffbeb" stroke="#d97706" stroke-width="1.5"/><text x="1022" y="436" font-size="11.5" text-anchor="middle" font-weight="700" fill="#d97706">kWh</text><text x="1022" y="454" font-size="11" text-anchor="middle" font-weight="700" fill="#0f172a">2</text><rect x="1088" y="416" width="76" height="52" rx="6" fill="#fffbeb" stroke="#d97706" stroke-width="1.5"/><text x="1126" y="436" font-size="11.5" text-anchor="middle" font-weight="700" fill="#d97706">kWh</text><text x="1126" y="454" font-size="11" text-anchor="middle" font-weight="700" fill="#0f172a">3</text><text x="1230" y="448" font-size="24" text-anchor="middle" font-weight="700" fill="#64748b">…</text><rect x="1296" y="416" width="76" height="52" rx="6" fill="#fffbeb" stroke="#d97706" stroke-width="1.5"/><text x="1334" y="436" font-size="11.5" text-anchor="middle" font-weight="700" fill="#d97706">kWh</text><text x="1334" y="454" font-size="11" text-anchor="middle" font-weight="700" fill="#0f172a">48</text><polyline points="820,384 1404,384" fill="none" stroke="#cbd5e1" stroke-width="11" stroke-linecap="round" stroke-linejoin="round"/><polyline points="820,384 1404,384" fill="none" stroke="#0284c7" stroke-width="4.5" stroke-linecap="round" stroke-linejoin="round"/><polyline points="918,384 918,416" fill="none" stroke="#cbd5e1" stroke-width="9.5" stroke-linecap="round" stroke-linejoin="round"/><polyline points="918,384 918,416" fill="none" stroke="#0284c7" stroke-width="3" stroke-linecap="round" stroke-linejoin="round"/><polyline points="1022,384 1022,416" fill="none" stroke="#cbd5e1" stroke-width="9.5" stroke-linecap="round" stroke-linejoin="round"/><polyline points="1022,384 1022,416" fill="none" stroke="#0284c7" stroke-width="3" stroke-linecap="round" stroke-linejoin="round"/><polyline points="1126,384 1126,416" fill="none" stroke="#cbd5e1" stroke-width="9.5" stroke-linecap="round" stroke-linejoin="round"/><polyline points="1126,384 1126,416" fill="none" stroke="#0284c7" stroke-width="3" stroke-linecap="round" stroke-linejoin="round"/><polyline points="1334,384 1334,416" fill="none" stroke="#cbd5e1" stroke-width="9.5" stroke-linecap="round" stroke-linejoin="round"/><polyline points="1334,384 1334,416" fill="none" stroke="#0284c7" stroke-width="3" stroke-linecap="round" stroke-linejoin="round"/><rect x="1384" y="375" width="40" height="18" rx="3" fill="#fff7ed" stroke="#ea580c" stroke-width="1.6"/><text x="1404" y="389" font-size="9" text-anchor="middle" font-weight="700" fill="#ea580c">120Ω</text><text x="880" y="506" font-size="11.5" text-anchor="start" font-weight="700" fill="#0284c7">วัดไฟ:  Power Meter Single Phase AC 230V 60A (DDS238-2, RS485)  ·  addr 1–48  ·  เลี้ยงตัวเองจากไฟที่วัด</text><polyline points="905,265 940,265 940,540 760,540 760,610 800,610" fill="none" stroke="#cbd5e1" stroke-width="11" stroke-linecap="round" stroke-linejoin="round"/><polyline points="905,265 940,265 940,540 760,540 760,610 800,610" fill="none" stroke="#7c3aed" stroke-width="4.5" stroke-linecap="round" stroke-linejoin="round"/><rect x="800" y="576" width="150" height="70" rx="7" fill="#0f172a" stroke="#000000" stroke-width="1.6"/><text x="875" y="598" font-size="11" text-anchor="middle" font-weight="700" fill="#ffffff">custom board</text><text x="875" y="614" font-size="8.5" text-anchor="middle" font-weight="400" fill="#94a3b8">ESP32 + RS485 · นับพัลส์</text><rect x="841" y="622" width="68" height="18" rx="4" fill="#ffffff" stroke="#ffffff" stroke-width="1"/><text x="875" y="635" font-size="9.5" text-anchor="middle" font-weight="700" fill="#0f172a">addr 121</text><rect x="1000" y="585" width="120" height="52" rx="6" fill="#166534" stroke="#14532d" stroke-width="1.5"/><text x="1060" y="607" font-size="10" text-anchor="middle" font-weight="700" fill="#ffffff">Optocoupler</text><text x="1060" y="623" font-size="9" text-anchor="middle" font-weight="700" fill="#86efac">8 ช่อง ×2</text><polyline points="1000,611 950,611" fill="none" stroke="#a855f7" stroke-width="2.6" stroke-linecap="round" stroke-linejoin="round" marker-end="url(#ar)"/><rect x="1180" y="585" width="76" height="52" rx="6" fill="#ecfeff" stroke="#0891b2" stroke-width="1.5"/><text x="1218" y="605" font-size="11" text-anchor="middle" font-weight="700" fill="#0891b2">flow</text><text x="1218" y="623" font-size="10" text-anchor="middle" font-weight="700" fill="#0f172a">CH1</text><rect x="1276" y="585" width="76" height="52" rx="6" fill="#ecfeff" stroke="#0891b2" stroke-width="1.5"/><text x="1314" y="605" font-size="11" text-anchor="middle" font-weight="700" fill="#0891b2">flow</text><text x="1314" y="623" font-size="10" text-anchor="middle" font-weight="700" fill="#0f172a">CH2</text><text x="1410" y="630" font-size="24" text-anchor="middle" font-weight="700" fill="#64748b">…</text><rect x="1468" y="585" width="76" height="52" rx="6" fill="#ecfeff" stroke="#0891b2" stroke-width="1.5"/><text x="1506" y="605" font-size="11" text-anchor="middle" font-weight="700" fill="#0891b2">flow</text><text x="1506" y="623" font-size="10" text-anchor="middle" font-weight="700" fill="#0f172a">CH16</text><polyline points="1170,611 1120,611" fill="none" stroke="#a855f7" stroke-width="2.6" stroke-linecap="round" stroke-linejoin="round" marker-end="url(#ar)"/><text x="880" y="692" font-size="11.5" text-anchor="start" font-weight="700" fill="#7c3aed">วัดน้ำ:  Flow Meter สแตนเลส (พัลส์ NPN)  →  Optocoupler 8 ช่อง ×2  →  custom board (ESP32+RS485, addr 121)</text><text x="880" y="712" font-size="10.5" text-anchor="start" font-weight="400" fill="#64748b">ไฟเลี้ยง: MDR-60-24 → flow meter (24 V) · MDR-20-5 → custom board (5 V)</text><text x="60" y="752" font-size="12" text-anchor="start" font-weight="700" fill="#64748b">สาย RS485 ทุกช่วง = A / B / GND (3 เส้น) · daisy-chain · 120Ω ที่ปลายบัส · 9600 8N1</text><text x="40" y="778" font-size="11" text-anchor="start" font-weight="400" fill="#64748b">ระบบมิเตอร์น้ำ-ไฟรายห้าง/ห้อง + ตัดจ่ายระยะไกล · Modbus RTU บน RS485 · ปรับปรุง 2026-08-02</text></svg>